<svg width="62" height="62" viewBox="0 0 62 62" fill="none" xmlns="http://www.w3.org/2000/svg">
<path d="M61 61L46.8337 46.8084M27.8421 16.7895V27.8421M27.8421 27.8421V38.8947M27.8421 27.8421H38.8947M27.8421 27.8421H16.7895M54.6842 27.8421C54.6842 34.9611 51.8562 41.7885 46.8223 46.8223C41.7885 51.8562 34.9611 54.6842 27.8421 54.6842C20.7231 54.6842 13.8957 51.8562 8.86187 46.8223C3.828 41.7885 1 34.9611 1 27.8421C1 20.7231 3.828 13.8957 8.86187 8.86187C13.8957 3.828 20.7231 1 27.8421 1C34.9611 1 41.7885 3.828 46.8223 8.86187C51.8562 13.8957 54.6842 20.7231 54.6842 27.8421V27.8421Z" stroke="white" stroke-width="2" stroke-linecap="round"/>
</svg>
