<svg width="26" height="27" viewBox="0 0 26 27" fill="none" xmlns="http://www.w3.org/2000/svg">
<path d="M12.8968 10.2857H15.4762V6.42857H19.3452V3.85714H15.4762V0H12.8968V3.85714H9.02778V6.42857H12.8968V10.2857ZM7.7381 21.8571C6.31944 21.8571 5.17163 23.0143 5.17163 24.4286C5.17163 25.8429 6.31944 27 7.7381 27C9.15675 27 10.3175 25.8429 10.3175 24.4286C10.3175 23.0143 9.15675 21.8571 7.7381 21.8571ZM20.6349 21.8571C19.2163 21.8571 18.0685 23.0143 18.0685 24.4286C18.0685 25.8429 19.2163 27 20.6349 27C22.0536 27 23.2143 25.8429 23.2143 24.4286C23.2143 23.0143 22.0536 21.8571 20.6349 21.8571ZM7.95734 17.6786L7.99603 17.5243L9.15675 15.4286H18.7649C19.7321 15.4286 20.5833 14.9014 21.0218 14.1043L26 5.09143L23.756 3.85714H23.7431L22.3244 6.42857L18.7649 12.8571H9.71131L9.54365 12.51L6.65476 6.42857L5.42956 3.85714L4.21726 1.28571H0V3.85714H2.57937L7.22222 13.6157L5.48115 16.7657C5.2748 17.1257 5.15873 17.55 5.15873 18C5.15873 19.4143 6.31944 20.5714 7.7381 20.5714H23.2143V18H8.27976C8.1121 18 7.95734 17.8586 7.95734 17.6786Z" fill="white"/>
</svg>
