<svg width="18" height="18" viewBox="0 0 18 18" fill="none" xmlns="http://www.w3.org/2000/svg">
<path d="M3.43095 3.43144C3.64192 3.22053 3.92801 3.10205 4.22632 3.10205C4.52463 3.10205 4.81073 3.22053 5.0217 3.43144L8.9997 7.40944L12.9777 3.43144C13.1899 3.22651 13.4741 3.11311 13.769 3.11568C14.064 3.11824 14.3462 3.23656 14.5547 3.44514C14.7633 3.65372 14.8816 3.93589 14.8842 4.23086C14.8868 4.52583 14.7734 4.81001 14.5684 5.02219L10.5904 9.00019L14.5684 12.9782C14.7734 13.1904 14.8868 13.4745 14.8842 13.7695C14.8816 14.0645 14.7633 14.3466 14.5547 14.5552C14.3462 14.7638 14.064 14.8821 13.769 14.8847C13.4741 14.8873 13.1899 14.7739 12.9777 14.5689L8.9997 10.5909L5.0217 14.5689C4.80952 14.7739 4.52534 14.8873 4.23037 14.8847C3.9354 14.8821 3.65324 14.7638 3.44465 14.5552C3.23607 14.3466 3.11775 14.0645 3.11519 13.7695C3.11263 13.4745 3.22602 13.1904 3.43095 12.9782L7.40895 9.00019L3.43095 5.02219C3.22004 4.81122 3.10156 4.52512 3.10156 4.22681C3.10156 3.9285 3.22004 3.6424 3.43095 3.43144V3.43144Z" fill="white"/>
</svg>
