<svg width="25" height="25" viewBox="0 0 18 18" fill="none" xmlns="http://www.w3.org/2000/svg">
<path d="M1.5 4.125C1.5 3.82663 1.61853 3.54048 1.8295 3.3295C2.04048 3.11853 2.32663 3 2.625 3H15.375C15.6734 3 15.9595 3.11853 16.1705 3.3295C16.3815 3.54048 16.5 3.82663 16.5 4.125C16.5 4.42337 16.3815 4.70952 16.1705 4.9205C15.9595 5.13147 15.6734 5.25 15.375 5.25H2.625C2.32663 5.25 2.04048 5.13147 1.8295 4.9205C1.61853 4.70952 1.5 4.42337 1.5 4.125V4.125ZM4.5 8.625C4.5 8.32663 4.61853 8.04048 4.8295 7.8295C5.04048 7.61853 5.32663 7.5 5.625 7.5H12.375C12.6734 7.5 12.9595 7.61853 13.1705 7.8295C13.3815 8.04048 13.5 8.32663 13.5 8.625C13.5 8.92337 13.3815 9.20952 13.1705 9.4205C12.9595 9.63147 12.6734 9.75 12.375 9.75H5.625C5.32663 9.75 5.04048 9.63147 4.8295 9.4205C4.61853 9.20952 4.5 8.92337 4.5 8.625ZM7.875 12C7.57663 12 7.29048 12.1185 7.0795 12.3295C6.86853 12.5405 6.75 12.8266 6.75 13.125C6.75 13.4234 6.86853 13.7095 7.0795 13.9205C7.29048 14.1315 7.57663 14.25 7.875 14.25H10.125C10.4234 14.25 10.7095 14.1315 10.9205 13.9205C11.1315 13.7095 11.25 13.4234 11.25 13.125C11.25 12.8266 11.1315 12.5405 10.9205 12.3295C10.7095 12.1185 10.4234 12 10.125 12H7.875Z" fill="#EB6608"/>
</svg>
