<svg width="45" height="44" viewBox="0 0 45 44" fill="none" xmlns="http://www.w3.org/2000/svg">
<path d="M13.3929 35.2C10.9375 35.2 8.95089 37.18 8.95089 39.6C8.95089 42.02 10.9375 44 13.3929 44C15.8482 44 17.8571 42.02 17.8571 39.6C17.8571 37.18 15.8482 35.2 13.3929 35.2ZM35.7143 35.2C33.2589 35.2 31.2723 37.18 31.2723 39.6C31.2723 42.02 33.2589 44 35.7143 44C38.1696 44 40.1786 42.02 40.1786 39.6C40.1786 37.18 38.1696 35.2 35.7143 35.2ZM13.7723 28.05L13.8393 27.786L15.8482 24.2H32.4777C34.1518 24.2 35.625 23.298 36.3839 21.934L45 6.512L41.1161 4.4H41.0938L38.6384 8.8L32.4777 19.8H16.808L16.5179 19.206L11.5179 8.8L9.39732 4.4L7.29911 0H0V4.4H4.46429L12.5 21.098L9.48661 26.488C9.12946 27.104 8.92857 27.83 8.92857 28.6C8.92857 31.02 10.9375 33 13.3929 33H40.1786V28.6H14.3304C14.0402 28.6 13.7723 28.358 13.7723 28.05Z" fill="white"/>
</svg>
