<svg width="20" height="19" viewBox="0 0 20 19" fill="none" xmlns="http://www.w3.org/2000/svg">
<path d="M7 14.0744H13M15 18H5C3.93913 18 2.92172 17.5864 2.17157 16.8502C1.42143 16.114 1 15.1155 1 14.0744V7.89937C0.999986 7.22437 1.17732 6.56078 1.51487 5.97266C1.85242 5.38455 2.33879 4.89179 2.927 4.54198L7.927 1.56832C8.55211 1.19655 9.26907 1 10 1C10.7309 1 11.4479 1.19655 12.073 1.56832L17.073 4.54198C17.6611 4.89171 18.1473 5.38431 18.4849 5.97224C18.8224 6.56016 18.9998 7.22356 19 7.89839V14.0744C19 15.1155 18.5786 16.114 17.8284 16.8502C17.0783 17.5864 16.0609 18 15 18Z" stroke="url(#paint0_linear_340_1340)" stroke-width="1.5" stroke-linecap="round" stroke-linejoin="round"/>
<defs>
<linearGradient id="paint0_linear_340_1340" x1="10" y1="1" x2="10" y2="18" gradientUnits="userSpaceOnUse">
<stop stop-color="#FF8128"/>
<stop offset="1" stop-color="#9D4100"/>
</linearGradient>
</defs>
</svg>
