<svg width="33" height="53" viewBox="0 0 33 53" fill="none" xmlns="http://www.w3.org/2000/svg">
<path d="M16.5 9.9C16.9376 9.9 17.3573 10.0738 17.6667 10.3833C17.9762 10.6927 18.15 11.1124 18.15 11.55V18.15C18.15 18.5876 17.9762 19.0073 17.6667 19.3167C17.3573 19.6262 16.9376 19.8 16.5 19.8C16.0624 19.8 15.6427 19.6262 15.3333 19.3167C15.0238 19.0073 14.85 18.5876 14.85 18.15V11.55C14.85 11.1124 15.0238 10.6927 15.3333 10.3833C15.6427 10.0738 16.0624 9.9 16.5 9.9ZM29.7 36.3C29.7 39.8009 28.3093 43.1583 25.8338 45.6338C23.3583 48.1093 20.0009 49.5 16.5 49.5C12.9991 49.5 9.64167 48.1093 7.16619 45.6338C4.69071 43.1583 3.3 39.8009 3.3 36.3V16.5C3.3 12.9991 4.69071 9.64167 7.16619 7.16619C9.64167 4.69071 12.9991 3.3 16.5 3.3C20.0009 3.3 23.3583 4.69071 25.8338 7.16619C28.3093 9.64167 29.7 12.9991 29.7 16.5V36.3ZM16.5 0C12.1239 0 7.92709 1.73839 4.83274 4.83274C1.73839 7.92709 0 12.1239 0 16.5V36.3C0 40.6761 1.73839 44.8729 4.83274 47.9673C7.92709 51.0616 12.1239 52.8 16.5 52.8C20.8761 52.8 25.0729 51.0616 28.1673 47.9673C31.2616 44.8729 33 40.6761 33 36.3V16.5C33 12.1239 31.2616 7.92709 28.1673 4.83274C25.0729 1.73839 20.8761 0 16.5 0V0Z" fill="url(#paint0_linear_61_179)"/>
<defs>
<linearGradient id="paint0_linear_61_179" x1="16.5" y1="0" x2="16.5" y2="52.8" gradientUnits="userSpaceOnUse">
<stop stop-color="#FF8128"/>
<stop offset="1" stop-color="#9D4100"/>
</linearGradient>
</defs>
</svg>
