<svg width="64" height="44" viewBox="0 0 64 44" fill="none" xmlns="http://www.w3.org/2000/svg">
<g clip-path="url(#clip0_109_649)">
<path d="M26 6.75977V10.1398H63.965C63.912 9.04976 63.798 7.67177 63.39 6.75977" fill="#EC1C24"/>
<path d="M61.6 3.37988H26V6.75988H63.39C62.984 5.49888 62.38 4.34888 61.6 3.37988Z" fill="#E6E7E8"/>
<path d="M54 0H26V3.38H61.6C59.931 1.29 57.184 0 54 0Z" fill="#EC1C24"/>
<path d="M63.965 10.1401H26V13.5201H64V11.2671C64 11.0661 63.987 10.8701 63.981 10.6731C63.977 10.6191 63.971 10.4801 63.965 10.1401Z" fill="#E6E7E8"/>
<path d="M26 16.9H64V13.52H26V16.9Z" fill="#EC1C24"/>
<path d="M26 20.2799H64V16.8999H26V20.2799Z" fill="#E6E7E8"/>
<path d="M26 20.2798H64V23.6598H26V20.2798Z" fill="#EC1C24"/>
<path d="M0 23.6602V27.0402H64V23.6602H26H0Z" fill="#E6E7E8"/>
<path d="M0 27.04H64V30.42H0V27.04Z" fill="#EC1C24"/>
<path d="M0.005 32.4989C0.005 32.4989 -0.004 33.3179 0.02 33.7999H63.98C64.008 33.3059 63.995 32.4989 63.995 32.4989L64 30.4199H0L0.005 32.4989Z" fill="#E6E7E8"/>
<path d="M9.99813 44.0001H53.9981C57.1911 44.0001 59.8451 42.8401 61.6581 40.5601H2.32812C4.20012 42.8901 6.90413 44.0001 9.99312 44.0001" fill="#EC1C24"/>
<path d="M2.33547 40.5602H61.6655C62.4564 39.5552 63.0471 38.4078 63.4055 37.1802H0.605469C0.970566 38.4041 1.55878 39.5501 2.34047 40.5602" fill="#E6E7E8"/>
<path d="M0.599531 37.1798H63.3995C63.727 36.0803 63.9217 34.9456 63.9795 33.7998H0.0195312C0.118531 34.9558 0.210531 35.8288 0.599531 37.1798Z" fill="#EC1C24"/>
<path d="M26 0H10C3.373 0 0 4.925 0 11V23.66H26V0Z" fill="#176496"/>
<path d="M2.79806 5.97577L3.34206 5.55777L3.88506 5.97577L3.67406 5.30377L4.21506 4.89277H3.54706L3.34006 4.21777L3.13406 4.89277H2.46706L3.01006 5.30377L2.79806 5.97577ZM6.39206 5.97577L6.93606 5.55777L7.47906 5.97577L7.26906 5.30377L7.80906 4.89277H7.14206L6.93506 4.21777L6.72906 4.89277H6.06006L6.60306 5.30377L6.39206 5.97577ZM10.3571 5.97577L10.9001 5.55777L11.4441 5.97577L11.2331 5.30377L11.7731 4.89277H11.1101L10.9001 4.21777L10.6931 4.89277H10.0301L10.5671 5.30377L10.3571 5.97577ZM14.2931 5.97577L14.8361 5.55777L15.3801 5.97577L15.1701 5.30377L15.7101 4.89277H15.0401L14.8361 4.21777L14.6301 4.89277H13.9621L14.5041 5.30377L14.2931 5.97577ZM18.2431 5.97577L18.7871 5.55777L19.3301 5.97577L19.1201 5.30377L19.6611 4.89277H18.9921L18.7861 4.21777L18.5801 4.89277H17.9131L18.4531 5.30377L18.2431 5.97577ZM4.71106 7.73077L5.25406 7.31377L5.79706 7.73077L5.58806 7.05977L6.12806 6.64877H5.46006L5.25306 5.97477L5.05006 6.64877H4.38006L4.92106 7.05977L4.71106 7.73077ZM8.30606 7.73077L8.84906 7.31377L9.39206 7.73077L9.18206 7.05977L9.72206 6.64877H9.05006L8.84906 5.97477L8.64206 6.64877H7.97506L8.51606 7.05977L8.30606 7.73077ZM12.2711 7.73077L12.8131 7.31377L13.3561 7.73077L13.1461 7.05977L13.6871 6.64877H13.0201L12.8131 5.97477L12.6061 6.64877H11.9381L12.4791 7.05977L12.2711 7.73077ZM16.2051 7.73077L16.7491 7.31377L17.2931 7.73077L17.0801 7.05977L17.6221 6.64877H16.9551L16.7481 5.97477L16.5431 6.64877H15.8751L16.4161 7.05977L16.2051 7.73077ZM20.1601 7.73077L20.6991 7.31377L21.2421 7.73077L21.0301 7.05977L21.5721 6.64877H20.9061L20.6981 5.97477L20.4931 6.64877H19.8251L20.3661 7.05977L20.1601 7.73077ZM22.3871 5.97577L22.9301 5.55777L23.4741 5.97577L23.2631 5.30377L23.8031 4.89277H23.1401L22.9291 4.21777L22.7231 4.89277H22.0501L22.5971 5.30377L22.3871 5.97577ZM2.74506 20.0198L3.28906 19.6068L3.83206 20.0198L3.62206 19.3538L4.16206 18.9418L3.49506 18.9438L3.28706 18.2698L3.08306 18.9438L2.41406 18.9418L2.95506 19.3538L2.74506 20.0198ZM6.34006 20.0198L6.88306 19.6068L7.42706 20.0198L7.21606 19.3538L7.75606 18.9418L7.09006 18.9438L6.88206 18.2698L6.67706 18.9438L6.01006 18.9418L6.55006 19.3538L6.34006 20.0198ZM10.3051 20.0198L10.8481 19.6068L11.3921 20.0198L11.1811 19.3538L11.7211 18.9418L11.0501 18.9438L10.8471 18.2698L10.6411 18.9438L9.97406 18.9418L10.5151 19.3538L10.3051 20.0198ZM14.2411 20.0198L14.7841 19.6068L15.3271 20.0198L15.1201 19.3538L15.6571 18.9418L14.9891 18.9438L14.7831 18.2698L14.5771 18.9438L13.9101 18.9418L14.4501 19.3538L14.2411 20.0198ZM18.1901 20.0198L18.7341 19.6068L19.2781 20.0198L19.0701 19.3538L19.6071 18.9418L18.9401 18.9438L18.7331 18.2698L18.5281 18.9438L17.8601 18.9418L18.4001 19.3538L18.1901 20.0198ZM22.3341 20.0198L22.8771 19.6068L23.4211 20.0198L23.2101 19.3538L23.7511 18.9418L23.0801 18.9438L22.8761 18.2698L22.6701 18.9438L22.0001 18.9418L22.5441 19.3538L22.3341 20.0198ZM2.79806 9.48777L3.34206 9.06977L3.88506 9.48777L3.67406 8.81577L4.21506 8.40477L3.54706 8.40677L3.34006 7.73077L3.13406 8.40677L2.46706 8.40477L3.01006 8.81577L2.79806 9.48777ZM6.39206 9.48777L6.93606 9.06977L7.47906 9.48777L7.26906 8.81577L7.80906 8.40477L7.14206 8.40677L6.93506 7.73077L6.72906 8.40677L6.06006 8.40477L6.60306 8.81577L6.39206 9.48777ZM10.3571 9.48777L10.9001 9.06977L11.4441 9.48777L11.2331 8.81577L11.7731 8.40477L11.1101 8.40677L10.9001 7.73077L10.6931 8.40677L10.0301 8.40477L10.5671 8.81577L10.3571 9.48777ZM14.2931 9.48777L14.8361 9.06977L15.3801 9.48777L15.1701 8.81577L15.7101 8.40477L15.0401 8.40677L14.8361 7.73077L14.6301 8.40677L13.9621 8.40477L14.5041 8.81577L14.2931 9.48777ZM18.2431 9.48777L18.7871 9.06977L19.3301 9.48777L19.1201 8.81577L19.6611 8.40477L18.9921 8.40677L18.7861 7.73077L18.5801 8.40677L17.9131 8.40477L18.4531 8.81577L18.2431 9.48777ZM4.71106 11.2438L5.25406 10.8268L5.79706 11.2438L5.58806 10.5728L6.12806 10.1598H5.46006L5.25306 9.48777L5.05006 10.1598H4.38006L4.92106 10.5728L4.71106 11.2438ZM8.30606 11.2438L8.84906 10.8268L9.39206 11.2438L9.18206 10.5728L9.72206 10.1598H9.05006L8.84906 9.48777L8.64206 10.1598H7.97506L8.51606 10.5728L8.30606 11.2438ZM12.2711 11.2438L12.8131 10.8268L13.3561 11.2438L13.1461 10.5728L13.6871 10.1598H13.0201L12.8131 9.48777L12.6061 10.1598H11.9381L12.4791 10.5728L12.2711 11.2438ZM16.2051 11.2438L16.7491 10.8268L17.2931 11.2438L17.0801 10.5728L17.6221 10.1598H16.9551L16.7481 9.48777L16.5431 10.1598H15.8751L16.4161 10.5728L16.2051 11.2438ZM20.1601 11.2438L20.6991 10.8268L21.2421 11.2438L21.0301 10.5728L21.5721 10.1598H20.9061L20.6981 9.48777L20.4931 10.1598H19.8251L20.3661 10.5728L20.1601 11.2438ZM22.3871 9.48777L22.9301 9.06977L23.4741 9.48777L23.2631 8.81577L23.8031 8.40477L23.1401 8.40677L22.9291 7.73077L22.7231 8.40677L22.0501 8.40477L22.5971 8.81577L22.3871 9.48777ZM2.74506 12.9998L3.28906 12.5828L3.83206 12.9998L3.62106 12.3298L4.16206 11.9178L3.49406 11.9198L3.28706 11.2438L3.08306 11.9198L2.41406 11.9178L2.95506 12.3298L2.74506 12.9998ZM6.34006 12.9998L6.88306 12.5828L7.42706 12.9998L7.21606 12.3298L7.75606 11.9178L7.09006 11.9198L6.88206 11.2438L6.67706 11.9198L6.01006 11.9178L6.54906 12.3298L6.34006 12.9998ZM10.3051 12.9998L10.8481 12.5828L11.3911 12.9998L11.1811 12.3298L11.7211 11.9178L11.0501 11.9198L10.8471 11.2438L10.6411 11.9198L9.97406 11.9178L10.5151 12.3298L10.3051 12.9998ZM14.2411 12.9998L14.7831 12.5828L15.3271 12.9998L15.1201 12.3298L15.6571 11.9178L14.9891 11.9198L14.7831 11.2438L14.5771 11.9198L13.9101 11.9178L14.4501 12.3298L14.2411 12.9998ZM18.1901 12.9998L18.7341 12.5828L19.2771 12.9998L19.0701 12.3298L19.6071 11.9178L18.9391 11.9198L18.7331 11.2438L18.5281 11.9198L17.8601 11.9178L18.4001 12.3298L18.1901 12.9998ZM4.65806 14.7558L5.20106 14.3398L5.74406 14.7558L5.53506 14.0898L6.07406 13.6758H5.40606L5.20006 12.9998L4.99506 13.6758H4.32706L4.86806 14.0898L4.65806 14.7558ZM8.25306 14.7558L8.79606 14.3398L9.33906 14.7558L9.12906 14.0898L9.66906 13.6758H9.00006L8.79506 12.9998L8.58906 13.6758H7.92106L8.46306 14.0898L8.25306 14.7558ZM12.2191 14.7558L12.7601 14.3398L13.3041 14.7558L13.0901 14.0898L13.6341 13.6758H12.9671L12.7601 12.9998L12.5541 13.6758H11.8861L12.4271 14.0898L12.2191 14.7558ZM16.1501 14.7558L16.6961 14.3398L17.2401 14.7558L17.0301 14.0898L17.5691 13.6758H16.9021L16.6951 12.9998L16.4901 13.6758H15.8221L16.3631 14.0898L16.1501 14.7558ZM20.1001 14.7558L20.6461 14.3398L21.1901 14.7558L20.9791 14.0898L21.5211 13.6758H20.8541L20.6461 12.9998L20.4401 13.6758H19.7721L20.3131 14.0898L20.1001 14.7558ZM22.3341 12.9998L22.8771 12.5828L23.4201 12.9998L23.2101 12.3298L23.7511 11.9178L23.0801 11.9198L22.8761 11.2438L22.6701 11.9198L22.0001 11.9178L22.5441 12.3298L22.3341 12.9998ZM2.74506 16.5128L3.28906 16.0998L3.83206 16.5128L3.62106 15.8418L4.16206 15.4298L3.49406 15.4318L3.28706 14.7558L3.08306 15.4318L2.41406 15.4298L2.95506 15.8418L2.74506 16.5128ZM6.34006 16.5128L6.88306 16.0998L7.42706 16.5128L7.21606 15.8418L7.75606 15.4298L7.09006 15.4318L6.88206 14.7558L6.67706 15.4318L6.01006 15.4298L6.54906 15.8418L6.34006 16.5128ZM10.3051 16.5128L10.8481 16.0998L11.3911 16.5128L11.1811 15.8418L11.7211 15.4298L11.0501 15.4318L10.8471 14.7558L10.6411 15.4318L9.97406 15.4298L10.5151 15.8418L10.3051 16.5128ZM14.2411 16.5128L14.7831 16.0998L15.3271 16.5128L15.1201 15.8418L15.6571 15.4298L14.9891 15.4318L14.7831 14.7558L14.5771 15.4318L13.9101 15.4298L14.4501 15.8418L14.2411 16.5128ZM18.1901 16.5128L18.7341 16.0998L19.2771 16.5128L19.0701 15.8418L19.6071 15.4298L18.9391 15.4318L18.7331 14.7558L18.5281 15.4318L17.8601 15.4298L18.4001 15.8418L18.1901 16.5128ZM4.65806 18.2698L5.20106 17.8518L5.74406 18.2698L5.53506 17.5978L6.07406 17.1898H5.40606L5.20006 16.5128L4.99506 17.1898H4.32706L4.86806 17.5978L4.65806 18.2698ZM8.25306 18.2698L8.79606 17.8518L9.33906 18.2698L9.12906 17.5978L9.66906 17.1898H9.00006L8.79506 16.5128L8.58906 17.1898H7.92106L8.46306 17.5978L8.25306 18.2698ZM12.2191 18.2698L12.7601 17.8518L13.3041 18.2698L13.0901 17.5978L13.6341 17.1898H12.9671L12.7601 16.5128L12.5541 17.1898H11.8861L12.4271 17.5978L12.2191 18.2698ZM16.1501 18.2698L16.6961 17.8518L17.2401 18.2698L17.0301 17.5978L17.5691 17.1898H16.9021L16.6951 16.5128L16.4901 17.1898H15.8221L16.3631 17.5978L16.1501 18.2698ZM20.1001 18.2698L20.6461 17.8518L21.1901 18.2698L20.9791 17.5978L21.5211 17.1898H20.8541L20.6461 16.5128L20.4401 17.1898H19.7721L20.3131 17.5978L20.1001 18.2698ZM22.3341 16.5128L22.8771 16.0998L23.4201 16.5128L23.2101 15.8418L23.7511 15.4298L23.0801 15.4318L22.8761 14.7558L22.6701 15.4318L22.0001 15.4298L22.5441 15.8418L22.3341 16.5128Z" fill="white"/>
</g>
<defs>
<clipPath id="clip0_109_649">
<rect width="64" height="44" fill="white"/>
</clipPath>
</defs>
</svg>
